<mxfile host="app.diagrams.net" agent="Mozilla/5.0 (Macintosh; Intel Mac OS X 10.15; rv:138.0) Gecko/20100101 Firefox/138.0" version="27.0.9">
  <diagram name="Page-1" id="adGEc_nTsVdC9XLiCqks">
    <mxGraphModel dx="465" dy="366" grid="1" gridSize="10" guides="1" tooltips="1" connect="1" arrows="1" fold="1" page="1" pageScale="1" pageWidth="827" pageHeight="1169" math="0" shadow="0">
      <root>
        <mxCell id="0" />
        <mxCell id="1" parent="0" />
        <mxCell id="xaW593ikv_hJflvQ_vIK-4" value="" style="rounded=0;whiteSpace=wrap;html=1;fillColor=light-dark(#FFFFFF,#242426);strokeColor=light-dark(#242426,#242426);movable=1;resizable=1;rotatable=1;deletable=1;editable=1;locked=0;connectable=1;container=0;" parent="1" vertex="1">
          <mxGeometry x="320" y="280" width="300" height="220" as="geometry" />
        </mxCell>
        <mxCell id="xaW593ikv_hJflvQ_vIK-55" value="&lt;font style=&quot;font-size: 10px; color: light-dark(rgb(0, 0, 0), rgb(96, 114, 250));&quot;&gt;/editPlayList&lt;/font&gt;" style="text;html=1;align=center;verticalAlign=middle;whiteSpace=wrap;rounded=0;fontFamily=Nerd;container=0;" parent="1" vertex="1">
          <mxGeometry x="450" y="362" width="130" height="27.33" as="geometry" />
        </mxCell>
        <mxCell id="xaW593ikv_hJflvQ_vIK-57" value="&lt;font style=&quot;font-size: 10px; color: light-dark(rgb(0, 0, 0), rgb(96, 114, 250));&quot;&gt;/editMusic&lt;/font&gt;" style="text;html=1;align=center;verticalAlign=middle;whiteSpace=wrap;rounded=0;fontFamily=Nerd;container=0;" parent="1" vertex="1">
          <mxGeometry x="321" y="362" width="129" height="27.33" as="geometry" />
        </mxCell>
        <mxCell id="xaW593ikv_hJflvQ_vIK-6" value="API Endpoint - ADMIN" style="text;html=1;align=center;verticalAlign=middle;whiteSpace=wrap;rounded=0;fontFamily=Nerd;container=0;fontColor=light-dark(#000000,#B2B0BF);" parent="1" vertex="1">
          <mxGeometry x="341" y="289.1111111111111" width="160" height="27.333333333333332" as="geometry" />
        </mxCell>
        <mxCell id="xaW593ikv_hJflvQ_vIK-19" value="" style="endArrow=none;html=1;rounded=0;fontColor=light-dark(#000000,#B2B0BF);strokeColor=light-dark(#000000,#B2B0BF);" parent="1" edge="1">
          <mxGeometry width="50" height="50" relative="1" as="geometry">
            <mxPoint x="341" y="316.08" as="sourcePoint" />
            <mxPoint x="520" y="316.4444444444444" as="targetPoint" />
          </mxGeometry>
        </mxCell>
        <mxCell id="xaW593ikv_hJflvQ_vIK-18" value="&lt;font style=&quot;font-size: 10px; color: light-dark(rgb(0, 0, 0), rgb(67, 194, 63));&quot;&gt;/addMusic&lt;/font&gt;" style="text;html=1;align=center;verticalAlign=middle;whiteSpace=wrap;rounded=0;fontFamily=Nerd;container=0;" parent="1" vertex="1">
          <mxGeometry x="321" y="325.55555555555554" width="120" height="27.333333333333332" as="geometry" />
        </mxCell>
        <mxCell id="xaW593ikv_hJflvQ_vIK-28" value="&lt;font style=&quot;font-size: 10px; color: light-dark(rgb(0, 0, 0), rgb(236, 97, 81));&quot;&gt;/deleteMusic&lt;/font&gt;" style="text;html=1;align=center;verticalAlign=middle;whiteSpace=wrap;rounded=0;fontFamily=Nerd;container=0;" parent="1" vertex="1">
          <mxGeometry x="321" y="343.77777777777777" width="140" height="27.333333333333332" as="geometry" />
        </mxCell>
        <mxCell id="xaW593ikv_hJflvQ_vIK-42" value="&lt;font style=&quot;font-size: 10px; color: light-dark(rgb(0, 0, 0), rgb(67, 194, 63));&quot;&gt;/addPlayList&lt;/font&gt;" style="text;html=1;align=center;verticalAlign=middle;whiteSpace=wrap;rounded=0;fontFamily=Nerd;container=0;" parent="1" vertex="1">
          <mxGeometry x="451" y="325.55555555555554" width="120" height="27.333333333333332" as="geometry" />
        </mxCell>
        <mxCell id="xaW593ikv_hJflvQ_vIK-43" value="&lt;font style=&quot;font-size: 10px; color: light-dark(rgb(0, 0, 0), rgb(236, 97, 81));&quot;&gt;/deletePlayList&lt;/font&gt;" style="text;html=1;align=center;verticalAlign=middle;whiteSpace=wrap;rounded=0;fontFamily=Nerd;container=0;" parent="1" vertex="1">
          <mxGeometry x="451" y="343.77777777777777" width="140" height="27.333333333333332" as="geometry" />
        </mxCell>
        <mxCell id="xaW593ikv_hJflvQ_vIK-34" value="&lt;font style=&quot;color: light-dark(rgb(0, 0, 0), rgb(67, 194, 63)); font-size: 10px;&quot;&gt;/addType&lt;/font&gt;" style="text;html=1;align=center;verticalAlign=middle;whiteSpace=wrap;rounded=0;fontFamily=Nerd;container=0;" parent="1" vertex="1">
          <mxGeometry x="320" y="434.88666666666666" width="120" height="27.333333333333332" as="geometry" />
        </mxCell>
        <mxCell id="xaW593ikv_hJflvQ_vIK-35" value="&lt;font style=&quot;font-size: 10px; color: light-dark(rgb(0, 0, 0), rgb(236, 97, 81));&quot;&gt;/deleteType&lt;/font&gt;" style="text;html=1;align=center;verticalAlign=middle;whiteSpace=wrap;rounded=0;fontFamily=Nerd;container=0;" parent="1" vertex="1">
          <mxGeometry x="320" y="453.1088888888889" width="140" height="27.333333333333332" as="geometry" />
        </mxCell>
        <mxCell id="xaW593ikv_hJflvQ_vIK-31" value="&lt;font style=&quot;color: light-dark(rgb(0, 0, 0), rgb(67, 194, 63)); font-size: 10px;&quot;&gt;/addGenre&lt;/font&gt;" style="text;html=1;align=center;verticalAlign=middle;whiteSpace=wrap;rounded=0;fontFamily=Nerd;container=0;" parent="1" vertex="1">
          <mxGeometry x="321" y="389.3311111111111" width="119.99999999999997" height="27.333333333333332" as="geometry" />
        </mxCell>
        <mxCell id="xaW593ikv_hJflvQ_vIK-32" value="&lt;font style=&quot;font-size: 10px; color: light-dark(rgb(0, 0, 0), rgb(236, 97, 81));&quot;&gt;/deleteGenre&lt;/font&gt;" style="text;html=1;align=center;verticalAlign=middle;whiteSpace=wrap;rounded=0;fontFamily=Nerd;container=0;" parent="1" vertex="1">
          <mxGeometry x="321" y="407.55333333333334" width="140" height="27.333333333333332" as="geometry" />
        </mxCell>
      </root>
    </mxGraphModel>
  </diagram>
</mxfile>
